<svg width="23" height="22" viewBox="0 0 23 22" fill="none" xmlns="http://www.w3.org/2000/svg">
<path d="M22.0211 3.36107C21.9007 3.21085 21.7183 3.1234 21.5255 3.1234H4.63544L4.16312 1.08079C4.09665 0.793419 3.84026 0.589844 3.54476 0.589844H0.794762C0.444309 0.589844 0.160156 0.873442 0.160156 1.22326C0.160156 1.57307 0.444309 1.85662 0.794762 1.85662H3.03992L6.24591 15.7222C6.31234 16.0096 6.56877 16.2132 6.86427 16.2132H19.5794C19.9299 16.2132 20.214 15.9296 20.214 15.5798C20.214 15.23 19.9298 14.9465 19.5794 14.9465H7.36915L6.88103 12.8352H19.6217C19.9186 12.8352 20.1757 12.6298 20.2409 12.3408L22.1447 3.8958C22.187 3.70805 22.1415 3.51134 22.0211 3.36107ZM19.114 11.5684H6.58811L4.92836 4.39014H20.7323L19.114 11.5684Z" fill="white"/>
<path d="M9.46756 17.0586C8.18451 17.0586 7.14062 18.1004 7.14062 19.381C7.14062 20.6616 8.18447 21.7034 9.46756 21.7034C10.7506 21.7034 11.7945 20.6616 11.7945 19.381C11.7945 18.1004 10.7506 17.0586 9.46756 17.0586ZM9.46756 20.4366C8.88434 20.4366 8.40988 19.9631 8.40988 19.381C8.40988 18.7989 8.88434 18.3254 9.46756 18.3254C10.0508 18.3254 10.5252 18.7989 10.5252 19.381C10.5252 19.9631 10.0508 20.4366 9.46756 20.4366Z" fill="white"/>
<path d="M17.0828 17.0586C15.7997 17.0586 14.7559 18.1004 14.7559 19.381C14.7559 20.6616 15.7997 21.7034 17.0828 21.7034C18.3658 21.7034 19.4097 20.6616 19.4097 19.381C19.4097 18.1004 18.3659 17.0586 17.0828 17.0586ZM17.0828 20.4366C16.4996 20.4366 16.0251 19.9631 16.0251 19.381C16.0251 18.799 16.4996 18.3254 17.0828 18.3254C17.666 18.3254 18.1405 18.799 18.1405 19.381C18.1405 19.9631 17.666 20.4366 17.0828 20.4366Z" fill="white"/>
</svg>
